<?xml version="1.0" encoding="UTF-8" standalone="no"?>
<!DOCTYPE svg PUBLIC "-//W3C//DTD SVG 1.1//EN" "http://www.w3.org/Graphics/SVG/1.1/DTD/svg11.dtd">
<svg width="100%" height="100%" viewBox="0 0 100 100" version="1.1" xmlns="http://www.w3.org/2000/svg" xmlns:xlink="http://www.w3.org/1999/xlink" xml:space="preserve" xmlns:serif="http://www.serif.com/" style="fill-rule:evenodd;clip-rule:evenodd;stroke-linejoin:round;stroke-miterlimit:2;">
    <g transform="matrix(4.16667,0,0,4.16667,0,0)">
        <path d="M12,8.862C11.133,8.862 10.393,9.168 9.78,9.781C9.167,10.394 8.861,11.134 8.861,12C8.861,12.867 9.167,13.607 9.78,14.22C10.393,14.833 11.133,15.139 12,15.139C12.866,15.139 13.606,14.833 14.219,14.22C14.832,13.607 15.138,12.867 15.138,12C15.138,11.134 14.832,10.394 14.219,9.781C13.606,9.168 12.866,8.862 12,8.862Z" style="fill:rgb(3,4,4);fill-rule:nonzero;"/>
        <path d="M17.823,7.771C17.603,7.991 17.337,8.102 17.026,8.102C16.716,8.102 16.45,7.991 16.23,7.771C16.009,7.55 15.898,7.284 15.898,6.974C15.898,6.663 16.009,6.397 16.23,6.177C16.45,5.956 16.716,5.846 17.026,5.846C17.337,5.846 17.603,5.956 17.823,6.177C18.044,6.397 18.154,6.663 18.154,6.974C18.154,7.284 18.044,7.55 17.823,7.771ZM15.42,15.421C14.48,16.361 13.34,16.831 12,16.831C10.659,16.831 9.519,16.361 8.579,15.421C7.639,14.481 7.169,13.341 7.169,12C7.169,10.66 7.639,9.52 8.579,8.58C9.519,7.64 10.659,7.17 12,7.17C13.34,7.17 14.48,7.64 15.42,8.58C16.36,9.52 16.83,10.66 16.83,12C16.83,13.341 16.36,14.481 15.42,15.421ZM19.73,9.769C19.726,9.475 19.713,9.081 19.693,8.586C19.673,8.091 19.632,7.671 19.57,7.323C19.509,6.976 19.434,6.684 19.344,6.446C19.18,6.038 18.943,5.678 18.633,5.367C18.322,5.057 17.962,4.82 17.554,4.656C17.316,4.567 17.024,4.491 16.677,4.429C16.329,4.368 15.908,4.327 15.414,4.307C14.919,4.287 14.525,4.274 14.231,4.27C13.937,4.266 13.506,4.266 12.938,4.27C12.369,4.274 12.057,4.276 12,4.276C11.942,4.276 11.63,4.274 11.062,4.27C10.493,4.266 10.062,4.266 9.768,4.27C9.474,4.274 9.079,4.287 8.585,4.307C8.09,4.327 7.669,4.368 7.322,4.429C6.975,4.491 6.682,4.567 6.445,4.656C6.037,4.82 5.677,5.057 5.366,5.367C5.056,5.678 4.819,6.038 4.655,6.446C4.565,6.684 4.49,6.976 4.429,7.323C4.367,7.671 4.326,8.091 4.306,8.586C4.285,9.081 4.273,9.475 4.269,9.769C4.265,10.063 4.265,10.494 4.269,11.062C4.273,11.631 4.275,11.943 4.275,12C4.275,12.058 4.273,12.37 4.269,12.938C4.265,13.506 4.265,13.938 4.269,14.232C4.273,14.526 4.285,14.921 4.306,15.415C4.326,15.91 4.367,16.33 4.429,16.678C4.49,17.025 4.565,17.318 4.655,17.554C4.819,17.963 5.056,18.323 5.366,18.633C5.677,18.944 6.037,19.181 6.445,19.345C6.682,19.435 6.975,19.51 7.322,19.571C7.669,19.633 8.09,19.674 8.585,19.694C9.079,19.714 9.474,19.727 9.768,19.731C10.062,19.735 10.493,19.735 11.062,19.731C11.63,19.727 11.942,19.725 12,19.725C12.057,19.725 12.369,19.727 12.938,19.731C13.506,19.735 13.937,19.735 14.231,19.731C14.525,19.727 14.919,19.714 15.414,19.694C15.908,19.674 16.329,19.633 16.677,19.571C17.024,19.51 17.316,19.435 17.554,19.345C17.962,19.181 18.322,18.944 18.633,18.633C18.943,18.323 19.18,17.963 19.344,17.554C19.434,17.318 19.509,17.025 19.57,16.678C19.632,16.33 19.673,15.91 19.693,15.415C19.713,14.921 19.726,14.526 19.73,14.232C19.734,13.938 19.734,13.506 19.73,12.938C19.726,12.37 19.724,12.058 19.724,12C19.724,11.943 19.726,11.631 19.73,11.062C19.734,10.494 19.734,10.063 19.73,9.769Z" style="fill:rgb(3,4,4);fill-rule:nonzero;"/>
        <path d="M21.354,15.887C21.273,17.587 20.766,18.903 19.834,19.835C18.902,20.767 17.586,21.273 15.886,21.355C15.167,21.396 13.871,21.417 12,21.417C10.128,21.417 8.832,21.396 8.113,21.355C6.413,21.273 5.097,20.767 4.165,19.835C3.233,18.903 2.726,17.587 2.645,15.887C2.604,15.168 2.583,13.872 2.583,12C2.583,10.129 2.604,8.833 2.645,8.114C2.726,6.414 3.233,5.098 4.165,4.166C5.097,3.234 6.413,2.727 8.113,2.646C8.832,2.605 10.128,2.584 12,2.584C13.871,2.584 15.167,2.605 15.886,2.646C17.586,2.727 18.902,3.234 19.834,4.166C20.766,5.098 21.273,6.414 21.354,8.114C21.395,8.833 21.416,10.129 21.416,12C21.416,13.872 21.395,15.168 21.354,15.887ZM22.679,1.321C21.799,0.441 20.739,0 19.5,0L4.5,0C3.26,0 2.2,0.441 1.32,1.321C0.439,2.201 0,3.261 0,4.5L0,19.5C0,20.74 0.439,21.8 1.32,22.68C2.2,23.56 3.26,24 4.5,24L19.5,24C20.739,24 21.799,23.56 22.679,22.68C23.559,21.8 24,20.74 24,19.5L24,4.5C24,3.261 23.559,2.201 22.679,1.321Z" style="fill:rgb(3,4,4);fill-rule:nonzero;"/>
    </g>
</svg>
